#!OML:ASF E:\emotionWalksFemale\Project 1\Capture day 1\Session 1\Female1.ASF
:FULLY-SPECIFIED
:DEGREES
2683
root 9.60746 15.3568 35.383 -2.23328 13.2483 -2.47862
lowerback 4.96827 -0.352154 -1.95588
upperback 2.46998 -0.536793 1.5915
thorax -0.212008 -0.290819 2.76062
lowerneck -7.1135 -0.239774 -8.3125
upperneck 48.786 3.13076 -0.966309
head 20.6028 -0.303115 1.63477
rclavicle 4.30648e-015 2.5842e-015
rhumerus -34.3573 12.3888 -85.1653
rradius 31.8873
rwrist 16.5761
rhand -5.77038 -51.2514
rfingers 7.12502
rthumb 20.0531 -80.2366
lclavicle 4.30648e-015 2.5842e-015
lhumerus -25.217 -3.46058 90.4805
lradius 35.377
lwrist -17.5086
lhand -5.2414 -33.0705
lfingers 7.12502
lthumb 20.5615 -4.13945
rfemur -11.7004 -2.99765 21.9113
rtibia 60.8454
rfoot -11.8161 -4.91983
rtoes -22.9359
lfemur -7.48599 -22.8703 -28.3891
ltibia 25.6349
lfoot -31.7323 29.8131
ltoes 31.6156
2684
root 9.60475 15.3476 35.4293 -2.33781 14.0037 -2.58343
lowerback 4.77689 -0.39249 -1.78631
upperback 2.65797 -0.581162 1.49948
thorax 0.087513 -0.316409 2.56936
lowerneck -7.17765 -0.256652 -8.18636
upperneck 48.6787 3.09302 -0.962373
head 20.5406 -0.284027 1.60974
rclavicle 7.64079e-015 3.37934e-015
rhumerus -34.0825 11.9148 -85.0353
rradius 31.7977
rwrist 16.5334
rhand -5.27316 -50.4101
rfingers 7.12502
rthumb 20.5309 -79.3445
lclavicle 7.64079e-015 3.37934e-015
lhumerus -24.7713 -4.46818 90.6394
lradius 35.5865
lwrist -17.0983
lhand -5.41771 -33.0603
lfingers 7.12502
lthumb 20.392 -4.11103
rfemur -12.0049 -2.39002 22.0076
rtibia 60.5287
rfoot -12.5331 -5.71087
rtoes -24.3041
lfemur -7.32325 -22.758 -28.3362
ltibia 25.8013
lfoot -31.524 29.1096
ltoes 31.5508
2685
root 9.59851 15.3343 35.4714 -2.51764 14.8031 -2.69256
lowerback 5.00308 -0.391894 -1.64574
upperback 2.66322 -0.576499 1.47487
thorax -0.0352809 -0.310783 2.46691
lowerneck -7.02745 -0.303596 -8.12941
upperneck 48.5902 3.07192 -1.09325
head 20.4375 -0.282571 1.52896
rclavicle -1.02933e-014 2.98177e-015
rhumerus -34.2019 11.7412 -85.0036
rradius 31.8041
rwrist 16.4464
rhand -5.41036 -50.8905
rfingers 7.12502
rthumb 20.3991 -79.839
lclavicle -1.02933e-014 2.98177e-015
lhumerus -24.7382 -5.35386 90.9553
lradius 36.0121
lwrist -16.8239
lhand -5.36559 -32.9803
lfingers 7.12502
lthumb 20.4421 -4.03633
rfemur -12.1545 -1.66539 22.0544
rtibia 60.1684
rfoot -13.7552 -5.85287
rtoes -20.7748
lfemur -7.14216 -22.6456 -28.2865
ltibia 26.0169
lfoot -31.3849 28.3969
ltoes 31.7306
2686
root 9.59103 15.3266 35.5133 -2.47571 15.6492 -2.56489
lowerback 5.30902 -0.399311 -1.79689
upperback 2.46959 -0.596431 1.44778
thorax -0.402066 -0.315559 2.52947
lowerneck -6.76357 -0.31424 -8.40959
upperneck 48.5671 3.06742 -0.947452
head 20.336 -0.302968 1.65362
rclavicle -2.39411e-014 3.97569e-016
rhumerus -34.6266 11.5507 -84.9275
rradius 31.9028
rwrist 16.5625
rhand -5.29053 -50.7372
rfingers 7.12502
rthumb 20.5142 -79.6734
lclavicle -2.39411e-014 3.97569e-016
lhumerus -24.9248 -6.16708 91.3763
lradius 36.4724
lwrist -16.4718
lhand -5.17493 -32.8552
lfingers 7.12502
lthumb 20.6253 -3.93101
rfemur -12.8154 -1.25527 21.9157
rtibia 59.6889
rfoot -14.3025 -6.58331
rtoes -23.8334
lfemur -7.18458 -22.6226 -28.4037
ltibia 26.2585
lfoot -30.915 27.9955
ltoes 30.4001
2687
root 9.58048 15.3204 35.5612 -2.23101 16.4311 -2.27313
lowerback 5.32142 -0.404524 -2.30754
upperback 2.30474 -0.62866 1.42521
thorax -0.570439 -0.330948 2.79688
lowerneck -6.65133 -0.30157 -8.60311
upperneck 48.6418 3.10705 -0.813928
head 20.3514 -0.29937 1.76637
rclavicle -4.99446e-015 -7.15625e-015
rhumerus -34.9243 11.1296 -84.7316
rradius 32.0047
rwrist 17.3385
rhand -4.07267 -50.8509
rfingers 7.12502
rthumb 21.6842 -79.6565
lclavicle -4.99446e-015 -7.15625e-015
lhumerus -24.9566 -6.893 91.724
lradius 36.8742
lwrist -16.0016
lhand -5.03368 -32.5762
lfingers 7.12502
lthumb 20.7611 -3.66686
rfemur -13.6042 -0.626034 21.6011
rtibia 59.173
rfoot -14.8758 -7.09402
rtoes -26.3511
lfemur -7.36914 -22.7528 -28.6117
ltibia 26.4959
lfoot -30.7949 27.4557
ltoes 29.8449
2688
root 9.56927 15.312 35.6142 -2.32972 17.1609 -2.2182
lowerback 5.35133 -0.309023 -2.8036
upperback 2.37581 -0.524056 1.56034
thorax -0.513707 -0.283881 3.2104
lowerneck -6.61642 -0.398663 -8.59949
upperneck 48.6383 3.02918 -0.91085
head 20.3506 -0.328787 1.70654
rclavicle -1.74868e-014 -5.11871e-015
rhumerus -34.9845 10.766 -84.3901
rradius 31.9434
rwrist 17.7143
rhand -3.53357 -50.6761
rfingers 7.12502
rthumb 22.2018 -79.4211
lclavicle -1.74868e-014 -5.11871e-015
lhumerus -24.7033 -7.83073 92.2168
lradius 37.169
lwrist -15.2783
lhand -5.00075 -32.3616
lfingers 7.12502
lthumb 20.7927 -3.45564
rfemur -13.9628 0.183615 21.5346
rtibia 58.535
rfoot -14.8944 -7.80156
rtoes -27.0019
lfemur -7.16582 -22.9882 -28.7133
ltibia 26.7316
lfoot -30.1974 27.6618
ltoes 26.1386
2689
root 9.55886 15.3036 35.6654 -2.65015 17.982 -2.45953
lowerback 5.54634 -0.356157 -2.60582
upperback 2.49635 -0.580065 1.55103
thorax -0.496417 -0.312028 3.09366
lowerneck -6.71322 -0.392268 -8.55655
upperneck 48.6139 3.06911 -0.906856
head 20.3587 -0.298136 1.71145
rclavicle 4.89507e-015 -2.28602e-015
rhumerus -35.0114 10.835 -84.5925
rradius 31.8851
rwrist 17.3659
rhand -4.18353 -50.6612
rfingers 7.12502
rthumb 21.5777 -79.4791
lclavicle 4.89507e-015 -2.28602e-015
lhumerus -24.5226 -8.46307 92.3281
lradius 37.5137
lwrist -14.5461
lhand -4.92193 -32.5973
lfingers 7.12502
lthumb 20.8684 -3.69973
rfemur -14.0499 0.988542 21.7762
rtibia 57.7741
rfoot -15.0717 -8.37709
rtoes -27.8263
lfemur -6.86171 -23.0973 -28.5607
ltibia 27.0103
lfoot -30.8573 26.7381
ltoes 27.8922
2690
root 9.54903 15.2964 35.7109 -2.66642 18.8625 -2.54535
lowerback 5.59328 -0.39032 -2.61337
upperback 2.52064 -0.62621 1.55553
thorax -0.493979 -0.3353 3.1056
lowerneck -6.73901 -0.40599 -8.56934
upperneck 48.5668 3.08018 -0.897399
head 20.3305 -0.284668 1.72361
rclavicle -3.57688e-014 -3.52843e-015
rhumerus -35.0215 10.8459 -84.6619
rradius 31.8947
rwrist 17.0667
rhand -4.518 -50.847
rfingers 7.12502
rthumb 21.2565 -79.7014
lclavicle -3.57688e-014 -3.52843e-015
lhumerus -24.4812 -8.90059 92.5291
lradius 38.023
lwrist -14.183
lhand -4.8489 -32.854
lfingers 7.12502
lthumb 20.9386 -3.96418
rfemur -14.4296 1.68295 21.8046
rtibia 56.9343
rfoot -15.7326 -8.64313
rtoes -29.2403
lfemur -6.95709 -23.0893 -28.4248
ltibia 27.3355
lfoot -30.3501 26.1453
ltoes 26.5471
2691
root 9.54301 15.2867 35.7553 -2.484 19.7688 -2.45138
lowerback 5.49214 -0.41848 -2.71922
upperback 2.51259 -0.66693 1.51593
thorax -0.44206 -0.356877 3.12554
lowerneck -6.79715 -0.424504 -8.61744
upperneck 48.5351 3.08202 -0.848291
head 20.3222 -0.276931 1.76179
rclavicle -2.83517e-014 2.14687e-014
rhumerus -34.9796 10.5278 -84.5534
rradius 31.7317
rwrist 17.1629
rhand -4.5283 -50.7755
rfingers 7.12502
rthumb 21.2466 -79.631
lclavicle -2.83517e-014 2.14687e-014
lhumerus -24.4932 -9.4909 92.759
lradius 38.563
lwrist -13.9527
lhand -5.23247 -33.0842
lfingers 7.12502
lthumb 20.57 -4.15403
rfemur -14.9718 2.32664 21.5796
rtibia 56.0303
rfoot -16.016 -8.6218
rtoes -27.4424
lfemur -7.17782 -23.3647 -28.4613
ltibia 27.6796
lfoot -30.0324 25.8311
ltoes 25.3139
